HIERARCHY
ROOT Hips
{
  OFFSET -125.086 92.215 135.881
  CHANNELS 6 Xposition Yposition Zposition Zrotation Xrotation Yrotation
  JOINT LeftUpLeg
  {
    OFFSET 8.64259 1.95398 -2.38835
    CHANNELS 3 Zrotation Xrotation Yrotation
    JOINT LeftLeg
    {
      OFFSET 43.7702 0 0
      CHANNELS 3 Zrotation Xrotation Yrotation
      JOINT LeftFoot
      {
        OFFSET 40.6238 0 0
        CHANNELS 3 Zrotation Xrotation Yrotation
        JOINT LeftToeBase
        {
          OFFSET 12.7242 0 0
          CHANNELS 3 Zrotation Xrotation Yrotation
          End Site
          {
            OFFSET 0 0 0
          }
        }
      }
    }
  }
  JOINT RightUpLeg
  {
    OFFSET -8.2249 1.95398 -2.59336
    CHANNELS 3 Zrotation Xrotation Yrotation
    JOINT RightLeg
    {
      OFFSET 43.5653 0 0
      CHANNELS 3 Zrotation Xrotation Yrotation
      JOINT RightFoot
      {
        OFFSET 40.6238 0 0
        CHANNELS 3 Zrotation Xrotation Yrotation
        JOINT RightToeBase
        {
          OFFSET 12.7242 0 0
          CHANNELS 3 Zrotation Xrotation Yrotation
          End Site
          {
            OFFSET 0 0 0
          }
        }
      }
    }
  }
  JOINT Spine
  {
    OFFSET 0.165834 0.87714 6.61349
    CHANNELS 3 Zrotation Xrotation Yrotation
    JOINT Spine1
    {
      OFFSET 7.38963 1.71661e-005 0
      CHANNELS 3 Zrotation Xrotation Yrotation
      JOINT Spine2
      {
        OFFSET 11.9445 1.14441e-005 0
        CHANNELS 3 Zrotation Xrotation Yrotation
        JOINT Spine3
        {
          OFFSET 14.7254 4.19617e-005 0
          CHANNELS 3 Zrotation Xrotation Yrotation
          JOINT Spine4
          {
            OFFSET 10.9679 0 0
            CHANNELS 3 Zrotation Xrotation Yrotation
            JOINT RightShoulder
            {
              OFFSET 2.46616 -1.6653 3.69651
              CHANNELS 3 Zrotation Xrotation Yrotation
              JOINT RightArm
              {
                OFFSET 13.0012 0 0
                CHANNELS 3 Zrotation Xrotation Yrotation
                JOINT RightForeArm
                {
                  OFFSET 28.7848 1.52588e-005 0
                  CHANNELS 3 Zrotation Xrotation Yrotation
                  JOINT RightHand
                  {
                    OFFSET 26.5688 1.52588e-005 0
                    CHANNELS 3 Zrotation Xrotation Yrotation
                    End Site
                    {
                      OFFSET 0 0 0
                    }
                  }
                }
              }
            }
            JOINT LeftShoulder
            {
              OFFSET 2.38034 -1.29275 -3.7523
              CHANNELS 3 Zrotation Xrotation Yrotation
              JOINT LeftArm
              {
                OFFSET 16.3182 6.10352e-005 0
                CHANNELS 3 Zrotation Xrotation Yrotation
                JOINT LeftForeArm
                {
                  OFFSET 27.0901 0 0
                  CHANNELS 3 Zrotation Xrotation Yrotation
                  JOINT LeftHand
                  {
                    OFFSET 24.5451 1.52588e-005 0
                    CHANNELS 3 Zrotation Xrotation Yrotation
                    End Site
                    {
                      OFFSET 0 0 0
                    }
                  }
                }
              }
            }
            JOINT Neck
            {
              OFFSET 5.0226 -0.0266342 0
              CHANNELS 3 Zrotation Xrotation Yrotation
              JOINT Head
              {
                OFFSET 6.69363 2.86102e-005 0
                CHANNELS 3 Zrotation Xrotation Yrotation
                End Site
                {
                  OFFSET 0 0 0
                }
              }
            }
          }
        }
      }
    }
  }
}
MOTION
Frames:	9
Frame Time:	0.0416667
277.344 65.5421 265.561 -97.5803 49.5269 -70.5751 -103.279 -8.15934 163.281 -117.124 -22.2443 -100.807 83.717 2.62662 -35.7618 90.9394 56.4824 109.819 149.503 -22.8603 25.8266 -172.028 -1.51964 78.1984 139.487 -26.9468 73.5316 140.759 41.295 53.2497 10.7331 11.067 -94.7019 5.44297 19.4938 -9.66398 -6.11958 19.0515 -10.5325 -29.8359 21.4591 -3.11902 -9.82319 21.4591 -3.11903 117.297 -20.1761 -46.1133 84.1419 37.3105 13.7129 -8.66426 14.0992 -155.024 -6.91787 3.94308 -69.5132 18.7066 -50.8753 -144.341 -97.3629 -40.5225 39.012 -142.792 24.8304 -158.053 16.2169 0.384947 -1.46526 -103.679 -21.6409 68.5266 -32.7791 59.0853 103.72 
277.826 65.4294 266.002 -97.4831 49.5405 -70.3288 -102.894 -7.1841 163.682 -85.4643 -23.1372 -88.0611 88.0279 5.90042 -6.99886 90.6463 56.1245 109.788 150.25 -24.1971 25.6935 -170.392 -1.80675 78.5567 139.55 -30.2313 74.2087 139.828 41.5871 54.0544 10.7611 11.0376 -94.7073 5.50832 19.5451 -9.69361 -6.05369 19.1014 -10.5645 -29.7764 21.5166 -3.12994 -9.76375 21.5166 -3.12993 117.452 -20.47 -45.9513 84.1977 36.9076 13.4424 -8.47434 13.8249 -155.066 -6.94314 3.92854 -69.114 18.632 -50.9746 -144.464 -97.2898 -40.6992 39.1543 -143.432 25.7851 -158.157 14.991 0.45178 -0.816727 -103.761 -21.7164 68.6824 -32.7631 59.5668 103.625 
279.245 65.1019 267.303 -97.205 49.5768 -69.6102 -101.735 -4.32807 164.675 35.8765 11.725 -74.564 90.4029 -5.92626 114.522 89.7881 55.0725 109.695 152.332 -28.3942 25.5542 -166.335 -2.78592 80.1394 140.258 -38.4679 77.0296 137.324 42.231 56.1564 10.8416 10.951 -94.7222 5.69943 19.6915 -9.77867 -5.86096 19.244 -10.6564 -29.6023 21.6809 -3.16146 -9.5896 21.6809 -3.16146 117.913 -21.3313 -45.4793 84.3294 35.739 12.6774 -7.99704 13.1659 -155.168 -7.07809 3.92573 -67.9905 18.4214 -51.2666 -144.822 -97.0944 -41.1887 39.5476 -145.174 28.178 -158.49 11.2607 0.57087 1.14933 -103.964 -21.9198 69.1426 -32.702 60.9029 103.369 
281.596 64.5816 269.462 -96.7683 49.6267 -68.4469 -99.7409 0.300934 165.695 26.8454 6.28914 -78.1321 83.0873 -0.788343 102.699 88.3947 53.3388 109.511 158.877 -31.7634 28.025 -141.835 -0.400577 81.5097 108.636 -60.2131 48.3604 133.985 42.7904 58.8144 10.9666 10.8102 -94.7432 6.01047 19.9193 -9.91198 -5.5474 19.4658 -10.8003 -29.3179 21.9368 -3.21124 -9.30522 21.9368 -3.21124 118.676 -22.7385 -44.7153 84.4554 33.8655 11.5033 -7.41352 12.4468 -155.281 -7.45165 4.01738 -66.298 18.0896 -51.7465 -145.398 -96.8269 -41.9104 40.1261 -147.653 31.0037 -159.116 4.90684 0.467625 4.34784 -104.184 -22.2114 69.9053 -32.5414 62.8786 103.003 
284.913 63.9152 272.512 -96.195 49.6788 -66.8661 -96.7799 6.48321 165.832 25.161 2.80398 -84.447 75.356 3.91945 98.607 86.5013 50.9186 109.18 176.448 -16.2058 47.9342 -115.663 17.0177 51.9036 43.1823 -29.0398 0.692647 130.655 43.083 61.3405 11.1271 10.617 -94.7656 6.43675 20.2118 -10.0846 -5.11786 19.7505 -10.9864 -28.9264 22.2658 -3.2762 -8.91374 22.2658 -3.27619 119.753 -24.6797 -43.6704 84.4727 31.3489 10.0105 -6.87021 11.9207 -155.376 -8.17218 4.26164 -64.2246 17.6495 -52.4118 -146.182 -96.5518 -42.7715 40.8097 -150.491 33.4014 -160.089 -3.86305 -0.255515 8.26036 -104.282 -22.553 70.9742 -32.1882 65.242 102.548 
289.247 63.1875 276.497 -95.5047 49.7202 -64.9009 -92.6399 13.6682 163.816 5.01578 0.751823 -90.2801 69.3946 24.4132 88.3437 84.169 47.815 108.597 -178.79 -10.3493 78.3265 -91.2408 28.009 11.97 23.844 13.9567 11.5806 127.748 43.3578 63.6626 11.3126 10.3737 -94.784 6.97274 20.5499 -10.2859 -4.57805 20.0795 -11.2035 -28.4313 22.6465 -3.3525 -8.41868 22.6465 -3.35254 121.166 -27.1444 -42.3486 84.274 28.2561 8.28188 -6.442 11.6934 -155.436 -9.291 4.67355 -61.9557 17.1089 -53.2581 -147.166 -96.3386 -43.6834 41.5133 -153.378 35.0981 -161.408 -14.2396 -1.8123 12.0768 -104.118 -22.9146 72.3568 -31.5141 67.7668 101.957 
294.632 62.5308 281.449 -94.7135 49.7385 -62.5971 -87.4356 21.2932 158.179 -58.351 7.31741 -94.6818 102.239 32.7784 4.48789 81.511 44.0745 107.603 -168.865 -20.5659 97.2295 -76.1624 25.3654 1.17521 13.7074 42.0244 21.0411 125.315 44.1929 66.3016 11.5114 10.0837 -94.7925 7.61036 20.9123 -10.504 -3.93627 20.4321 -11.4385 -27.8385 23.0552 -3.43603 -7.82584 23.0551 -3.43605 122.948 -30.1116 -40.7445 83.7607 24.669 6.38834 -6.15639 11.7684 -155.453 -10.8133 5.2404 -59.6575 16.4684 -54.2747 -148.346 -96.2552 -44.5685 42.1516 -156.055 36.3501 -163.036 -24.9119 -4.02944 15.2103 -103.57 -23.276 74.0679 -30.3429 70.2976 101.08 
301.042 62.1067 287.392 -93.8341 49.7239 -60.0195 -82.8545 31.8227 148.145 -58.541 15.691 -91.4788 117.247 46.1019 1.99452 78.6993 39.8299 105.999 -151.664 -32.4001 129.093 -38.9134 40.5625 -30.7094 -26.0102 65.6701 47.2333 125.701 46.0761 67.9304 11.711 9.75183 -94.7872 8.33841 21.2757 -10.7278 -3.204 20.7855 -11.6793 -27.1562 23.4665 -3.52406 -7.1436 23.4665 -3.52405 125.132 -33.5301 -38.8409 82.8562 20.6962 4.39089 -6.0183 12.0978 -155.414 -12.712 5.93703 -57.4695 15.7216 -55.4399 -149.718 -96.3535 -45.3668 42.6525 -158.317 37.593 -164.925 -34.5359 -6.50902 17.6402 -102.564 -23.6174 76.1217 -28.4345 72.7595 99.6583 
308.46 61.9088 294.438 -92.8759 49.6707 -57.2481 -74.6902 41.7738 130.549 -67.3222 20.7037 -82.4434 136.642 50.6662 -8.84986 75.8959 35.305 103.656 -107.1 -40.8876 172.684 -20.7661 -19.4501 -48.9211 171.97 7.15472 166.049 137.987 46 59.061 11.9005 9.3829 -94.7675 9.14532 21.6187 -10.9529 -2.39317 21.1184 -11.9204 -26.3932 23.8587 -3.61988 -6.3805 23.8586 -3.6199 127.747 -37.2966 -36.6113 81.5216 16.4793 2.34921 -6.02498 12.6213 -155.303 -14.9399 6.73946 -55.4941 14.8539 -56.717 -151.276 -96.6422 -46.0489 42.982 -160.057 39.0984 -167.014 -42.3072 -8.95408 19.7164 -101.105 -23.8971 78.4947 -25.4891 75.1244 97.3343 
